<svg version="1.1" id="Layer_1" xmlns="http://www.w3.org/2000/svg" xmlns:xlink="http://www.w3.org/1999/xlink" x="0px" y="0px"
	 width="100%" viewBox="0 0 379 102" enable-background="new 0 0 379 102" xml:space="preserve">
<path fill="#FEFEFE" opacity="1.000000" stroke="none" 
	d="
M268.000000,103.000000 
	C178.666687,103.000000 89.833374,103.000000 1.000048,103.000000 
	C1.000032,69.000031 1.000032,35.000057 1.000016,1.000044 
	C64.166618,1.000000 127.333244,1.000000 190.499863,1.000000 
	C253.666519,1.000000 316.833160,1.000000 379.999878,1.000000 
	C379.999908,34.999931 379.999908,68.999863 379.999939,102.999893 
	C342.833344,103.000000 305.666656,103.000000 268.000000,103.000000 
M256.531189,77.007965 
	C259.002533,77.007965 261.473846,77.007965 264.589905,77.007965 
	C264.589905,65.606461 264.589905,54.556583 264.589905,43.631832 
	C273.273010,42.307610 275.741821,44.236172 276.022949,52.052116 
	C276.118683,54.714520 276.074768,57.382275 276.077911,60.047607 
	C276.084473,65.642281 276.079895,71.236969 276.079895,76.660797 
	C280.679169,76.660797 284.589539,76.660797 288.417908,76.660797 
	C288.417908,65.730751 288.417908,55.147984 288.417908,44.586163 
	C296.472351,41.348076 299.739380,43.327782 300.240479,51.778637 
	C300.388153,54.270046 300.346039,56.773975 300.352112,59.272259 
	C300.366211,65.059563 300.356598,70.846924 300.356598,76.761284 
	C304.799866,76.761284 308.710205,76.761284 312.988007,76.761284 
	C312.988007,69.394333 313.001099,62.267662 312.980621,55.141094 
	C312.973907,52.809864 313.040375,50.462112 312.798798,48.150616 
	C311.568481,36.379578 304.250305,30.806898 292.475525,32.793011 
	C289.892548,33.228695 287.448364,34.438015 284.896210,35.127991 
	C283.753113,35.437031 282.220490,35.846523 281.341797,35.355865 
	C271.640717,29.938776 261.954376,33.186676 251.921967,34.733543 
	C251.921967,48.311634 251.856171,61.454525 252.078690,74.592529 
	C252.092651,75.417183 254.360382,76.203651 256.531189,77.007965 
M203.196152,63.494389 
	C203.132965,58.337612 203.310150,53.164169 202.954056,48.027699 
	C202.312698,38.776749 197.463318,33.740730 188.304642,32.750259 
	C184.937149,32.386082 181.497253,32.691517 177.703339,32.691517 
	C177.703339,26.189659 177.703339,19.751698 177.703339,12.657024 
	C173.235321,13.349998 169.247147,13.968549 165.356110,14.572034 
	C165.356110,35.631741 165.356110,56.180779 165.356110,76.711441 
	C169.566223,76.711441 173.471298,76.711441 177.775360,76.711441 
	C177.775360,65.663422 177.775360,54.904400 177.775360,44.298409 
	C186.442947,41.281803 190.358780,43.659618 190.691528,52.297684 
	C191.003143,60.387131 190.758224,68.498016 190.758224,76.710297 
	C195.175491,76.710297 199.063278,76.710297 203.196152,76.710297 
	C203.196152,72.439354 203.196152,68.465652 203.196152,63.494389 
M345.496246,41.032417 
	C344.392914,42.604073 343.289551,44.175724 341.877960,46.186443 
	C338.893494,41.745178 337.087738,36.675552 333.509216,34.426502 
	C330.167297,32.326130 324.943146,33.220612 319.373749,32.683777 
	C325.054810,40.805401 329.796753,47.584457 334.353607,54.098896 
	C329.208405,61.712078 324.337036,68.920052 318.870636,77.008514 
	C322.277405,77.008514 324.285431,76.747681 326.199524,77.060928 
	C330.661682,77.791161 333.209778,75.969658 335.093903,71.953819 
	C336.654877,68.626793 339.068604,65.699852 341.577087,61.875099 
	C344.649231,66.858818 346.336273,72.089035 349.927612,74.700195 
	C353.324860,77.170296 358.721436,76.890633 363.238647,77.820366 
	C363.535889,77.208275 363.833130,76.596184 364.130371,75.984085 
	C359.741699,69.791435 355.485809,63.497932 350.897858,57.456596 
	C349.105621,55.096588 348.800537,53.516487 350.727875,51.028301 
	C355.048859,45.449890 358.997498,39.583103 363.282776,33.574352 
	C355.506165,32.240688 348.933380,32.089661 345.496246,41.032417 
M55.767956,83.211151 
	C54.782997,85.981781 53.798042,88.752411 52.640236,92.009254 
	C55.128868,92.009254 56.991119,91.754166 58.757488,92.057472 
	C63.891373,92.939026 66.193169,90.829887 67.846077,85.868469 
	C75.409904,63.164619 83.428215,40.612206 91.279053,18.003927 
	C91.961357,16.039097 92.612831,14.063561 93.410950,11.701313 
	C91.398033,11.570250 90.105782,11.428288 88.811897,11.411316 
	C80.865135,11.307079 80.868294,11.317632 78.208115,18.921816 
	C70.799370,40.099926 63.387642,61.276989 55.767956,83.211151 
M226.829437,24.759045 
	C226.759262,23.304012 226.689087,21.848978 226.602921,20.062618 
	C222.230743,20.808805 218.232880,21.491110 214.105911,22.195448 
	C214.105911,28.645653 214.008286,34.621597 214.129364,40.593109 
	C214.300873,49.053276 214.417358,57.524632 214.981491,65.962852 
	C215.301453,70.748863 218.064880,74.381317 222.578873,76.252754 
	C229.523422,79.131874 236.397644,78.555984 243.446518,75.624603 
	C242.861557,72.374001 242.341003,69.481339 241.818085,66.575470 
	C238.759338,66.855690 236.001297,67.249832 233.234406,67.327469 
	C229.430405,67.434212 227.196625,65.304344 227.056458,61.626656 
	C226.830139,55.688984 226.995621,49.736382 226.995621,43.240662 
	C231.995377,43.240662 236.726257,43.240662 241.643524,43.240662 
	C241.643524,39.612911 241.643524,36.541748 241.643524,33.000801 
	C236.699677,33.000801 231.956497,33.000801 226.829422,33.000801 
	C226.829422,30.252480 226.829422,27.968323 226.829437,24.759045 
M39.704113,46.100449 
	C43.220119,44.744068 46.736122,43.387684 50.554901,41.914497 
	C49.402916,38.372070 48.402523,35.295803 47.282558,31.851854 
	C35.642635,36.700153 24.283606,41.236507 13.170491,46.311371 
	C11.808253,46.933445 11.294506,50.429817 11.252459,52.610851 
	C11.217699,54.413883 11.972427,57.330685 13.214604,57.888073 
	C24.356871,62.887764 35.684490,67.474380 47.310444,72.329765 
	C48.440296,68.769417 49.418953,65.685509 50.501171,62.275276 
	C41.986061,58.935848 33.810383,55.729534 24.522348,52.086983 
	C30.142681,49.865395 34.561104,48.118896 39.704113,46.100449 
M98.868195,32.496643 
	C97.801788,35.559258 96.735390,38.621876 95.610016,41.853848 
	C104.345825,45.287781 112.534401,48.506603 121.713699,52.114864 
	C112.265678,55.798233 104.112274,58.976887 95.601234,62.294968 
	C96.810265,65.819595 97.899643,68.995399 99.020164,72.261978 
	C102.958237,70.640099 106.332199,69.263000 109.696419,67.862480 
	C117.042648,64.804253 124.295807,61.491711 131.766281,58.776363 
	C135.233002,57.516296 135.133926,55.270954 135.019180,52.572441 
	C134.898895,49.743092 135.815948,46.945572 131.728241,45.397274 
	C120.882454,41.289223 110.256859,36.599804 98.868195,32.496643 
z"/>
<path fill="#373737" opacity="1.000000" stroke="none" 
	d="
M256.055389,77.007919 
	C254.360382,76.203651 252.092651,75.417183 252.078690,74.592529 
	C251.856171,61.454525 251.921967,48.311634 251.921967,34.733543 
	C261.954376,33.186676 271.640717,29.938776 281.341797,35.355865 
	C282.220490,35.846523 283.753113,35.437031 284.896210,35.127991 
	C287.448364,34.438015 289.892548,33.228695 292.475525,32.793011 
	C304.250305,30.806898 311.568481,36.379578 312.798798,48.150616 
	C313.040375,50.462112 312.973907,52.809864 312.980621,55.141094 
	C313.001099,62.267662 312.988007,69.394333 312.988007,76.761284 
	C308.710205,76.761284 304.799866,76.761284 300.356598,76.761284 
	C300.356598,70.846924 300.366211,65.059563 300.352112,59.272259 
	C300.346039,56.773975 300.388153,54.270046 300.240479,51.778637 
	C299.739380,43.327782 296.472351,41.348076 288.417908,44.586163 
	C288.417908,55.147984 288.417908,65.730751 288.417908,76.660797 
	C284.589539,76.660797 280.679169,76.660797 276.079895,76.660797 
	C276.079895,71.236969 276.084473,65.642281 276.077911,60.047607 
	C276.074768,57.382275 276.118683,54.714520 276.022949,52.052116 
	C275.741821,44.236172 273.273010,42.307610 264.589905,43.631832 
	C264.589905,54.556583 264.589905,65.606461 264.589905,77.007965 
	C261.473846,77.007965 259.002533,77.007965 256.055389,77.007919 
z"/>
<path fill="#383838" opacity="1.000000" stroke="none" 
	d="
M203.196152,63.993172 
	C203.196152,68.465652 203.196152,72.439354 203.196152,76.710297 
	C199.063278,76.710297 195.175491,76.710297 190.758224,76.710297 
	C190.758224,68.498016 191.003143,60.387131 190.691528,52.297684 
	C190.358780,43.659618 186.442947,41.281803 177.775360,44.298409 
	C177.775360,54.904400 177.775360,65.663422 177.775360,76.711441 
	C173.471298,76.711441 169.566223,76.711441 165.356110,76.711441 
	C165.356110,56.180779 165.356110,35.631741 165.356110,14.572034 
	C169.247147,13.968549 173.235321,13.349998 177.703339,12.657024 
	C177.703339,19.751698 177.703339,26.189659 177.703339,32.691517 
	C181.497253,32.691517 184.937149,32.386082 188.304642,32.750259 
	C197.463318,33.740730 202.312698,38.776749 202.954056,48.027699 
	C203.310150,53.164169 203.132965,58.337612 203.196152,63.993172 
z"/>
<path fill="#3969A6" opacity="1.000000" stroke="none" 
	d="
M345.703491,40.720184 
	C348.933380,32.089661 355.506165,32.240688 363.282776,33.574352 
	C358.997498,39.583103 355.048859,45.449890 350.727875,51.028301 
	C348.800537,53.516487 349.105621,55.096588 350.897858,57.456596 
	C355.485809,63.497932 359.741699,69.791435 364.130371,75.984085 
	C363.833130,76.596184 363.535889,77.208275 363.238647,77.820366 
	C358.721436,76.890633 353.324860,77.170296 349.927612,74.700195 
	C346.336273,72.089035 344.649231,66.858818 341.577087,61.875099 
	C339.068604,65.699852 336.654877,68.626793 335.093903,71.953819 
	C333.209778,75.969658 330.661682,77.791161 326.199524,77.060928 
	C324.285431,76.747681 322.277405,77.008514 318.870636,77.008514 
	C324.337036,68.920052 329.208405,61.712078 334.353607,54.098896 
	C329.796753,47.584457 325.054810,40.805401 319.373749,32.683777 
	C324.943146,33.220612 330.167297,32.326130 333.509216,34.426502 
	C337.087738,36.675552 338.893494,41.745178 341.877960,46.186443 
	C343.289551,44.175724 344.392914,42.604073 345.703491,40.720184 
z"/>
<path fill="#3969A6" opacity="1.000000" stroke="none" 
	d="
M55.872520,82.832809 
	C63.387642,61.276989 70.799370,40.099926 78.208115,18.921816 
	C80.868294,11.317632 80.865135,11.307079 88.811897,11.411316 
	C90.105782,11.428288 91.398033,11.570250 93.410950,11.701313 
	C92.612831,14.063561 91.961357,16.039097 91.279053,18.003927 
	C83.428215,40.612206 75.409904,63.164619 67.846077,85.868469 
	C66.193169,90.829887 63.891373,92.939026 58.757488,92.057472 
	C56.991119,91.754166 55.128868,92.009254 52.640236,92.009254 
	C53.798042,88.752411 54.782997,85.981781 55.872520,82.832809 
z"/>
<path fill="#393939" opacity="1.000000" stroke="none" 
	d="
M226.829437,25.221605 
	C226.829422,27.968323 226.829422,30.252480 226.829422,33.000801 
	C231.956497,33.000801 236.699677,33.000801 241.643524,33.000801 
	C241.643524,36.541748 241.643524,39.612911 241.643524,43.240662 
	C236.726257,43.240662 231.995377,43.240662 226.995621,43.240662 
	C226.995621,49.736382 226.830139,55.688984 227.056458,61.626656 
	C227.196625,65.304344 229.430405,67.434212 233.234406,67.327469 
	C236.001297,67.249832 238.759338,66.855690 241.818085,66.575470 
	C242.341003,69.481339 242.861557,72.374001 243.446518,75.624603 
	C236.397644,78.555984 229.523422,79.131874 222.578873,76.252754 
	C218.064880,74.381317 215.301453,70.748863 214.981491,65.962852 
	C214.417358,57.524632 214.300873,49.053276 214.129364,40.593109 
	C214.008286,34.621597 214.105911,28.645653 214.105911,22.195448 
	C218.232880,21.491110 222.230743,20.808805 226.602921,20.062618 
	C226.689087,21.848978 226.759262,23.304012 226.829437,25.221605 
z"/>
<path fill="#393939" opacity="1.000000" stroke="none" 
	d="
M39.341820,46.236423 
	C34.561104,48.118896 30.142681,49.865395 24.522348,52.086983 
	C33.810383,55.729534 41.986061,58.935848 50.501171,62.275276 
	C49.418953,65.685509 48.440296,68.769417 47.310444,72.329765 
	C35.684490,67.474380 24.356871,62.887764 13.214604,57.888073 
	C11.972427,57.330685 11.217699,54.413883 11.252459,52.610851 
	C11.294506,50.429817 11.808253,46.933445 13.170491,46.311371 
	C24.283606,41.236507 35.642635,36.700153 47.282558,31.851854 
	C48.402523,35.295803 49.402916,38.372070 50.554901,41.914497 
	C46.736122,43.387684 43.220119,44.744068 39.341820,46.236423 
z"/>
<path fill="#383838" opacity="1.000000" stroke="none" 
	d="
M99.205933,32.319153 
	C110.256859,36.599804 120.882454,41.289223 131.728241,45.397274 
	C135.815948,46.945572 134.898895,49.743092 135.019180,52.572441 
	C135.133926,55.270954 135.233002,57.516296 131.766281,58.776363 
	C124.295807,61.491711 117.042648,64.804253 109.696419,67.862480 
	C106.332199,69.263000 102.958237,70.640099 99.020164,72.261978 
	C97.899643,68.995399 96.810265,65.819595 95.601234,62.294968 
	C104.112274,58.976887 112.265678,55.798233 121.713699,52.114864 
	C112.534401,48.506603 104.345825,45.287781 95.610016,41.853848 
	C96.735390,38.621876 97.801788,35.559258 99.205933,32.319153 
z"/>
</svg>